<svg xmlns="http://www.w3.org/2000/svg" xmlns:xlink="http://www.w3.org/1999/xlink" width="110" zoomAndPan="magnify" viewBox="0 0 82.5 30.000001" height="40" preserveAspectRatio="xMidYMid meet" version="1.0"><defs><g/><clipPath id="57e18fb5a4"><path d="M 35 4 L 80.925781 4 L 80.925781 26 L 35 26 Z M 35 4 " clip-rule="nonzero"/></clipPath></defs><g fill="#ffffff" fill-opacity="1"><g transform="translate(2.14858, 21.541057)"><g><path d="M 13.921875 0 L 9.265625 0 L 4.46875 -9.25 L 4.390625 -9.25 C 4.503906 -7.789062 4.5625 -6.679688 4.5625 -5.921875 L 4.5625 0 L 1.421875 0 L 1.421875 -13.125 L 6.046875 -13.125 L 10.828125 -4 L 10.890625 -4 C 10.796875 -5.320312 10.75 -6.382812 10.75 -7.1875 L 10.75 -13.125 L 13.921875 -13.125 Z M 13.921875 0 "/></g></g></g><g fill="#ffffff" fill-opacity="1"><g transform="translate(17.487258, 21.541057)"><g><path d="M 4.90625 0 L 1.421875 0 L 1.421875 -13.125 L 9.171875 -13.125 L 9.171875 -10.28125 L 4.90625 -10.28125 L 4.90625 -7.78125 L 8.84375 -7.78125 L 8.84375 -4.9375 L 4.90625 -4.9375 Z M 4.90625 0 "/></g></g></g><g fill="#ffffff" fill-opacity="1"><g transform="translate(27.401719, 21.541057)"><g><path d="M 7.203125 0 L 3.65625 0 L 3.65625 -10.234375 L 0.453125 -10.234375 L 0.453125 -13.125 L 10.40625 -13.125 L 10.40625 -10.234375 L 7.203125 -10.234375 Z M 7.203125 0 "/></g></g></g><g clip-path="url(#57e18fb5a4)"><path stroke-linecap="butt" transform="matrix(0.688306, 0, 0, 0.688306, 38.640623, 1.919917)" fill="none" stroke-linejoin="miter" d="M 22.967388 28.997252 L 16.855237 28.997252 L 15.02216 20.666113 C 14.937032 20.314253 14.795153 19.621883 14.607873 18.583328 C 14.420592 17.544773 14.284388 16.676473 14.199261 15.978428 C 14.125484 16.545945 14.011981 17.249665 13.858751 18.095264 C 13.699847 18.935188 13.546617 19.70701 13.393388 20.416406 C 13.240158 21.120126 12.60454 23.986083 11.486533 28.997252 L 5.374383 28.997252 L 0.641297 9.866278 L 5.62409 9.866278 L 7.706875 19.462978 C 8.177913 21.579814 8.501398 23.271012 8.677328 24.525223 C 8.790831 23.634223 8.989462 22.425413 9.28457 20.898794 C 9.574003 19.372176 9.846411 18.106614 10.101793 17.10211 L 11.787317 9.866278 L 16.577154 9.866278 L 18.217276 17.10211 C 18.495359 18.265519 18.779117 19.604857 19.062876 21.120126 C 19.352309 22.641069 19.545264 23.776102 19.641742 24.525223 C 19.755245 23.554771 20.061704 21.874922 20.572469 19.485679 L 22.689305 9.866278 L 27.677773 9.866278 Z M 41.502469 28.997252 L 30.146468 28.997252 L 30.146468 9.866278 L 41.502469 9.866278 L 41.502469 14.014822 L 35.316542 14.014822 L 35.316542 17.028333 L 41.048456 17.028333 L 41.048456 21.176877 L 35.316542 21.176877 L 35.316542 24.786281 L 41.502469 24.786281 Z M 44.850815 9.866278 L 51.524807 9.866278 C 54.124031 9.866278 56.053587 10.252189 57.319148 11.024011 C 58.579034 11.795833 59.208977 12.998968 59.208977 14.633415 C 59.208977 15.70602 58.930894 16.619722 58.386079 17.380193 C 57.835588 18.140665 57.109167 18.628729 56.212491 18.844385 L 56.212491 18.974914 C 57.3986 19.292723 58.25555 19.814838 58.789015 20.546934 C 59.32248 21.27903 59.589213 22.232458 59.589213 23.401541 C 59.589213 25.132466 58.936569 26.50018 57.631282 27.499009 C 56.325994 28.497837 54.549669 28.997252 52.296629 28.997252 L 44.850815 28.997252 Z M 50.020889 17.209939 L 51.575883 17.209939 C 52.31933 17.209939 52.892521 17.056709 53.301133 16.75025 C 53.704069 16.443792 53.908375 15.989779 53.908375 15.388211 C 53.908375 14.315606 53.096827 13.78214 51.47373 13.78214 L 50.020889 13.78214 Z M 50.020889 20.989597 L 50.020889 25.007612 L 51.842616 25.007612 C 53.454362 25.007612 54.260235 24.326593 54.260235 22.964554 C 54.260235 22.328935 54.044579 21.840871 53.613267 21.500362 C 53.181954 21.159852 52.557686 20.989597 51.734788 20.989597 Z M 50.020889 20.989597 " stroke="#ffffff" stroke-width="1.005" stroke-opacity="1" stroke-miterlimit="4"/></g></svg>