<svg xmlns="http://www.w3.org/2000/svg" xmlns:xlink="http://www.w3.org/1999/xlink" width="110" zoomAndPan="magnify" viewBox="0 0 82.5 30.000001" height="40" preserveAspectRatio="xMidYMid meet" version="1.0"><defs><g/></defs><g fill="#ffffff" fill-opacity="1"><g transform="translate(16.694828, 18.620236)"><g><path d="M 8.328125 0 L 5.546875 0 L 2.671875 -5.53125 L 2.625 -5.53125 C 2.695312 -4.664062 2.734375 -4.003906 2.734375 -3.546875 L 2.734375 0 L 0.84375 0 L 0.84375 -7.859375 L 3.625 -7.859375 L 6.484375 -2.390625 L 6.515625 -2.390625 C 6.460938 -3.179688 6.4375 -3.816406 6.4375 -4.296875 L 6.4375 -7.859375 L 8.328125 -7.859375 Z M 8.328125 0 "/></g></g></g><g fill="#ffffff" fill-opacity="1"><g transform="translate(25.85807, 18.620236)"><g><path d="M 2.9375 0 L 0.84375 0 L 0.84375 -7.859375 L 5.484375 -7.859375 L 5.484375 -6.15625 L 2.9375 -6.15625 L 2.9375 -4.65625 L 5.296875 -4.65625 L 5.296875 -2.953125 L 2.9375 -2.953125 Z M 2.9375 0 "/></g></g></g><g fill="#ffffff" fill-opacity="1"><g transform="translate(31.780916, 18.620236)"><g><path d="M 4.3125 0 L 2.1875 0 L 2.1875 -6.125 L 0.28125 -6.125 L 0.28125 -7.859375 L 6.21875 -7.859375 L 6.21875 -6.125 L 4.3125 -6.125 Z M 4.3125 0 "/></g></g></g><path stroke-linecap="butt" transform="matrix(0.730205, 0, 0, 0.730205, 39.059382, 6.939062)" fill="none" stroke-linejoin="miter" d="M 12.800329 15.998284 L 9.355236 15.998284 L 8.328128 11.306752 C 8.274633 11.10882 8.199739 10.718305 8.092749 10.135207 C 7.985758 9.552109 7.910865 9.059953 7.862719 8.669437 C 7.819923 8.990409 7.761078 9.386274 7.670136 9.857032 C 7.579194 10.333139 7.493602 10.766451 7.40801 11.167665 C 7.322417 11.56353 6.963999 13.173736 6.338105 15.998284 L 2.898362 15.998284 L 0.228949 5.229694 L 3.037449 5.229694 L 4.208995 10.627363 C 4.471121 11.820307 4.653005 12.772522 4.754646 13.478659 C 4.81884 12.981153 4.93118 12.296414 5.097016 11.440491 C 5.257501 10.579217 5.412638 9.867731 5.557075 9.300681 L 6.50394 5.229694 L 9.20545 5.229694 L 10.125568 9.300681 C 10.280704 9.953323 10.441189 10.707606 10.601675 11.56353 C 10.76751 12.419453 10.874501 13.056047 10.927996 13.478659 C 10.99219 12.933008 11.163375 11.991491 11.452249 10.643412 L 12.645193 5.229694 L 15.453693 5.229694 Z M 23.22655 15.998284 L 16.83387 15.998284 L 16.83387 5.229694 L 23.22655 5.229694 L 23.22655 7.562086 L 19.74401 7.562086 L 19.74401 9.257885 L 22.969773 9.257885 L 22.969773 11.595627 L 19.74401 11.595627 L 19.74401 13.628446 L 23.22655 13.628446 Z M 25.104233 5.229694 L 28.864948 5.229694 C 30.330717 5.229694 31.41667 5.443675 32.122807 5.882336 C 32.834294 6.315647 33.187362 6.989687 33.187362 7.909805 C 33.187362 8.514301 33.032226 9.027856 32.727303 9.455817 C 32.417031 9.883779 32.010467 10.161954 31.502263 10.279644 L 31.502263 10.354537 C 32.170953 10.531072 32.65241 10.825295 32.951983 11.242558 C 33.251557 11.654471 33.401343 12.189424 33.401343 12.847415 C 33.401343 13.826378 33.037576 14.59136 32.299342 15.158409 C 31.566457 15.720109 30.566096 15.998284 29.298259 15.998284 L 25.104233 15.998284 Z M 28.014373 9.359526 L 28.891695 9.359526 C 29.308958 9.359526 29.635279 9.273934 29.865309 9.102749 C 30.089989 8.931564 30.207678 8.674787 30.207678 8.337767 C 30.207678 7.733271 29.747619 7.428348 28.832851 7.428348 L 28.014373 7.428348 Z M 28.014373 11.488636 L 28.014373 13.751485 L 29.041482 13.751485 C 29.950901 13.751485 30.40561 13.371668 30.40561 12.601337 C 30.40561 12.242919 30.282571 11.970093 30.041843 11.77751 C 29.795765 11.584928 29.442696 11.488636 28.982637 11.488636 Z M 28.014373 11.488636 " stroke="#ffffff" stroke-width="0.566006" stroke-opacity="1" stroke-miterlimit="4"/></svg>